<?xml version="1.0" encoding="UTF-8" standalone="no"?>
<svg
   id="Calque_1"
   version="1.1"
   viewBox="0 0 121.8 51.900002"
   xmlns="http://www.w3.org/2000/svg"
   xmlns:svg="http://www.w3.org/2000/svg">
  <defs
     id="defs11" />
  <!-- Generator: Adobe Illustrator 29.3.1, SVG Export Plug-In . SVG Version: 2.1.0 Build 151)  -->
  <path
     d="m 4.9,9.3 h 4.2 l 0.8,2.5 h 2.6 L 8.1,0 H 5.8 L 1.4,11.8 H 4 L 4.8,9.3 Z M 7,2.8 8.5,7.3 h -3 z"
     id="path1"
     style="fill:#ffffff;stroke:none" />
  <polygon
     points="46.4,61.4 50.1,61.4 50.1,59.5 46.4,59.5 44,59.5 40.4,59.5 40.4,61.4 44,61.4 44,71.3 46.4,71.3 "
     id="polygon1"
     style="fill:#ffffff;stroke:none"
     transform="translate(-19,-59.5)" />
  <polygon
     points="68.9,69.4 63.4,69.4 63.4,66.1 68.1,66.1 68.1,64.3 63.4,64.3 63.4,61.4 68.9,61.4 68.9,59.5 63.4,59.5 62.6,59.5 61,59.5 61,71.3 62.6,71.3 63.4,71.3 68.9,71.3 "
     id="polygon2"
     style="fill:#ffffff;stroke:none"
     transform="translate(-19,-59.5)" />
  <polygon
     points="87.4,69.4 82.3,69.4 82.3,59.5 79.8,59.5 79.8,71.3 81.5,71.3 82.3,71.3 87.4,71.3 "
     id="polygon3"
     style="fill:#ffffff;stroke:none"
     transform="translate(-19,-59.5)" />
  <rect
     x="79.5"
     y="0"
     width="2.4000001"
     height="11.8"
     id="rect3"
     style="fill:#ffffff;stroke:none" />
  <polygon
     points="120.6,69.4 115.1,69.4 115.1,66.1 119.8,66.1 119.8,64.3 115.1,64.3 115.1,61.4 120.6,61.4 120.6,59.5 115.1,59.5 114.4,59.5 112.7,59.5 112.7,71.3 114.4,71.3 115.1,71.3 120.6,71.3 "
     id="polygon4"
     style="fill:#ffffff;stroke:none"
     transform="translate(-19,-59.5)" />
  <path
     d="m 115,7.4 h 1.9 l 2.2,4.4 h 2.6 c 0,-0.1 -2.6,-5 -2.6,-5 0.3,-0.1 0.6,-0.3 0.9,-0.5 0.4,-0.3 0.7,-0.7 0.9,-1.1 0.2,-0.4 0.3,-1 0.3,-1.6 0,-0.6 -0.2,-1.4 -0.5,-2 C 120.4,1 119.8,0.7 119.2,0.4 118.6,0.1 117.8,0 116.9,0 h -4.4 v 11.8 h 2.4 V 7.4 Z m 2,-5.5 c 0.4,0 0.8,0 1.1,0.2 0.3,0.2 0.5,0.4 0.6,0.6 0.1,0.2 0.2,0.6 0.2,1 0,0.4 0,0.7 -0.2,0.9 -0.2,0.2 -0.4,0.5 -0.6,0.6 -0.2,0.1 -0.6,0.2 -1.1,0.2 h -2 V 1.8 h 2 z"
     id="path4"
     style="fill:#ffffff;stroke:none" />
  <path
     d="M 6.2,29.9 C 5,29.9 3.8,30.2 2.6,30.2 1.4,30.2 1,30 1,28.9 c 0,-1.7 2.7,-3.1 5,-3.1 3.6,0 5.4,1.1 6.5,1.9 V 20.9 C 11.3,20.7 10,20.5 8.6,20.5 c -6.2,0 -8.5,3.7 -8.5,7.1 0,5 4.9,5.3 8.5,5.5 2.2,0 4,0.2 4,1.5 0,1.3 -1.5,2.4 -4.4,2.4 C 5.3,37 3.4,36.4 0,34.8 v 7.1 c 1.2,0.2 3.6,0.4 5.1,0.4 4.2,0 8.6,-1.2 8.6,-6.4 0,-5.2 -3.9,-6 -7.6,-6 z"
     id="path5"
     style="fill:#ffffff;stroke:none" />
  <path
     d="m 27.7,20.9 0.6,4.4 h -0.5 c -0.6,-4.2 -3.3,-4.9 -4.9,-4.9 -4,0 -6.8,3.9 -6.8,10.6 0,6.7 3,11.4 5.9,11.4 2.9,0 4.3,-2.9 5.2,-5.9 h 0.5 c -0.2,1.8 -0.6,3.7 -1.1,5.5 h 6.1 c -1.2,-4 -1.8,-7.2 -1.8,-10.6 0,-3.4 0.6,-6.5 1.8,-10.6 h -5 z m -8.3,16.3 c -1,0 -1.8,-0.5 -1.8,-1.8 0,-3.9 7.7,-9.7 10.8,-9.7 3.1,0 1.8,0.6 1.8,1.8 0,3.9 -7.7,9.6 -10.8,9.6 z"
     id="path6"
     style="fill:#ffffff;stroke:none" />
  <path
     d="m 45.7,20.9 c 1,2.2 1.5,4.3 1.5,6.2 0,7 -6.5,10 -9,10 -2.5,0 -1,-0.2 -1,-1 0,-1 1,-2 2.2,-3.3 2.1,-2.2 4.8,-5 4.8,-8.7 0,-3.7 -0.2,-2.1 -0.7,-3.3 h -8.6 c 0.9,3.1 1.8,6.7 1.8,10.4 0,3.7 -0.8,5.7 -0.8,8.4 0,2.7 0.8,2.6 2.7,2.6 3.6,0 6.9,-5.5 7.7,-9.7 h 0.5 l -1.3,9.3 h 6.2 c -1.2,-4 -1.8,-7.2 -1.8,-10.6 0,-3.4 0.6,-6.3 1.9,-10.6 h -6.2 z"
     id="path7"
     style="fill:#ffffff;stroke:none" />
  <path
     d="m 67.2,26.9 c 0,7.2 -6.4,10.3 -8.8,10.3 -2.4,0 -1,-0.2 -1,-0.9 0,-0.7 1,-2 2.2,-3.3 2.1,-2.2 4.8,-5.1 4.8,-8.7 0,-3.6 -0.2,-2.1 -0.7,-3.3 H 53.3 c 2.6,7.4 3.6,12.8 3.8,21.1 h 9.3 c 0.2,-8.3 1.3,-13 3.8,-21.1 h -4.3 c 0.9,2.1 1.2,4.1 1.2,5.9 z"
     id="path8"
     style="fill:#ffffff;stroke:none" />
  <path
     d="m 82.7,20.9 0.6,4.4 h -0.5 c -0.6,-4.2 -3.3,-4.9 -4.9,-4.9 -4,0 -6.8,3.9 -6.8,10.6 0,6.7 3,11.4 5.9,11.4 2.9,0 4.3,-2.9 5.2,-5.9 h 0.5 c -0.2,1.8 -0.6,3.7 -1.1,5.5 h 6.1 c -1.2,-4 -1.8,-7.2 -1.8,-10.6 0,-3.4 0.6,-6.5 1.8,-10.6 h -5 z m -8.2,16.3 c -1,0 -1.8,-0.5 -1.8,-1.8 0,-3.9 7.7,-9.7 10.8,-9.7 3.1,0 1.8,0.6 1.8,1.8 0,3.9 -7.7,9.6 -10.8,9.6 z"
     id="path9"
     style="fill:#ffffff;stroke:none" />
  <path
     d="m 100.9,20.9 0.6,4.4 H 101 c -0.6,-4.4 -3.3,-4.8 -4.9,-4.8 -4,0 -6.8,3.8 -6.8,10.6 0,6.8 3,11.3 5.9,11.3 2.9,0 4.3,-2.9 5.2,-5.9 h 0.5 c 1.8,1.1 2.6,2.2 2.6,3.4 0,2.6 -4.1,4.7 -8.6,4.7 -4.5,0 -1.8,0 -2.7,-0.3 v 7.2 c 1,0.3 2,0.4 2.9,0.4 5.5,0 9.9,-4.1 9.9,-11.7 0,-7.6 -0.2,-3.3 -0.4,-4.8 -0.2,-1.5 -0.4,-2.9 -0.4,-4.7 0,-2.6 0.4,-5.4 1.8,-9.9 h -5.1 z m -8.3,16.3 c -1,0 -1.8,-0.5 -1.8,-1.8 0,-4 7.7,-9.7 10.8,-9.7 3.1,0 1.8,0.6 1.8,1.8 0,3.9 -7.7,9.6 -10.8,9.6 z"
     id="path10"
     style="fill:#ffffff;stroke:none" />
  <path
     d="m 112.1,37.6 c -1.8,0 -3.1,-0.5 -3.1,-2.1 0,-4.2 7.1,-9.2 10.5,-9.2 3.4,0 1,0.2 1,0.9 0,1.4 -2.6,4.1 -6.2,4.1 V 32 c 3.9,0 6.3,-2.6 7.1,-4.8 0,-2.6 -0.5,-5 -1.2,-6.3 -1.4,-0.3 -2.8,-0.5 -3.9,-0.5 -6.1,0 -9,5.6 -9,11.2 0,8.2 5.7,10.8 10.1,10.8 4.4,0 3,-0.2 4.4,-0.6 v -7 c -0.8,0.8 -6.2,2.7 -9.7,2.7 z"
     id="path11"
     style="fill:#ffffff;stroke:none" />
</svg>
